<svg width="109" height="16" viewBox="0 0 109 16" fill="none" xmlns="http://www.w3.org/2000/svg">
<path d="M7.106 15.5762C11.792 15.5762 13.662 13.4202 13.662 11.0222C13.662 8.99819 12.474 7.39219 9.174 6.86419L5.038 6.20419C3.806 5.98419 3.322 5.67619 3.322 4.81819C3.322 3.87219 4.048 3.41019 6.424 3.41019C9.35 3.41019 10.076 4.00419 10.076 5.41219V5.72019H13.398V5.58819C13.398 2.48619 11.286 0.396188 6.754 0.396188C1.804 0.396188 0 2.72819 0 4.95019C0 7.34819 1.562 8.66819 4.202 9.08619L8.338 9.68019C9.856 9.94419 10.362 10.2742 10.362 11.1762C10.362 12.1662 9.746 12.5622 7.106 12.5622C4.114 12.5622 3.432 12.0122 3.432 10.6482V10.2522H0.132V10.3842C0.132 13.8162 2.64 15.5762 7.106 15.5762Z" fill="white"/>
<path d="M24.5959 15.5762C29.5899 15.5762 32.6039 12.5842 32.6039 7.98619C32.6039 6.16019 32.1419 4.59819 31.2619 3.36619L32.8239 1.91419L31.2399 0.242188L29.6119 1.76019C28.2919 0.880187 26.6199 0.396188 24.5959 0.396188C19.7119 0.396188 16.6759 3.38819 16.6759 7.98619C16.6759 9.79019 17.1379 11.3522 17.9959 12.5842L16.3899 14.0802L17.9739 15.7522L19.6459 14.1902C20.9439 15.0922 22.6159 15.5762 24.5959 15.5762ZM20.1739 7.98619C20.1739 4.70819 21.3619 3.56419 24.5959 3.56419C25.6739 3.56419 26.5539 3.69619 27.2139 3.98219L20.4819 10.2742C20.2619 9.65819 20.1739 8.91019 20.1739 7.98619ZM24.5959 12.4082C23.5179 12.4082 22.6599 12.2762 22.0219 11.9902L28.7759 5.69819C28.9739 6.29219 29.0839 7.06219 29.0839 7.98619C29.0839 11.2642 27.8299 12.4082 24.5959 12.4082Z" fill="white"/>
<path d="M48.121 15.3562V12.3862H39.343V0.616188H36.043V15.3562H48.121Z" fill="white"/>
<path d="M61.2172 15.3562L67.3333 0.616188H63.3732L59.0173 12.0122H58.7972L54.3752 0.616188H50.3932L56.5092 15.3562H61.2172Z" fill="white"/>
<path d="M82.5092 15.3562V12.3862H73.3352V9.41619H82.1792V6.46819H73.3352V3.58619H82.5092V0.616188H70.0352V15.3562H82.5092Z" fill="white"/>
<path d="M89.3 15.3562V0.616188H86V15.3562H89.3Z" fill="white"/>
<path d="M99.9794 15.5762C103.169 15.5762 104.709 14.1242 105.215 12.1882H105.391V15.3562H108.449V7.56819H100.155V10.0102H105.149C105.061 11.8802 104.027 12.4082 100.639 12.4082C97.4054 12.4082 96.1954 11.2642 96.1954 7.98619C96.1954 4.70819 97.4494 3.56419 100.793 3.56419C103.631 3.56419 104.753 4.37819 104.753 6.09419V6.27019H108.427V6.09419C108.427 2.55219 105.501 0.396188 100.881 0.396188C95.8214 0.396188 92.6974 3.38819 92.6974 7.98619C92.6974 12.5842 95.4694 15.5762 99.9794 15.5762Z" fill="white"/>
</svg>
